<?xml version="1.0" encoding="UTF-8" standalone="no"?>
<svg
   xmlns:dc="http://purl.org/dc/elements/1.1/"
   xmlns:cc="http://creativecommons.org/ns#"
   xmlns:rdf="http://www.w3.org/1999/02/22-rdf-syntax-ns#"
   xmlns:svg="http://www.w3.org/2000/svg"
   xmlns="http://www.w3.org/2000/svg"
   xmlns:sodipodi="http://sodipodi.sourceforge.net/DTD/sodipodi-0.dtd"
   xmlns:inkscape="http://www.inkscape.org/namespaces/inkscape"
   inkscape:version="1.0 (4035a4fb49, 2020-05-01)"
   sodipodi:docname="facebook.svg"
   xml:space="preserve"
   width="67"
   viewBox="0 0 66.999999 66.999999"
   version="1.1"
   id="Layer_1"
   height="67"
   enable-background="new 0 0 56.693 56.693"><metadata
     id="metadata9"><rdf:RDF><cc:Work
         rdf:about=""><dc:format>image/svg+xml</dc:format><dc:type
           rdf:resource="http://purl.org/dc/dcmitype/StillImage" /><dc:title></dc:title></cc:Work></rdf:RDF></metadata><defs
     id="defs7" /><sodipodi:namedview
     inkscape:current-layer="Layer_1"
     inkscape:window-maximized="1"
     inkscape:window-y="-9"
     inkscape:window-x="-9"
     inkscape:cy="41.973673"
     inkscape:cx="63.611174"
     inkscape:zoom="7.6376271"
     showgrid="false"
     id="namedview5"
     inkscape:window-height="1051"
     inkscape:window-width="1920"
     inkscape:pageshadow="2"
     inkscape:pageopacity="0"
     guidetolerance="10"
     gridtolerance="10"
     objecttolerance="10"
     borderopacity="1"
     bordercolor="#666666"
     pagecolor="#ffffff"
     inkscape:document-rotation="0" /><path
     style="fill:#7d36cc;fill-opacity:1;stroke-width:1.3232"
     id="path2"
     d="m 33.653965,1.7342091 c -18.157061,0 -32.8763011,14.4611769 -32.8763011,32.2940549 0,17.835498 14.7192401,32.291431 32.8763011,32.291431 18.15706,0 32.8763,-14.455933 32.8763,-32.291431 0,-17.832878 -14.72057,-32.2940549 -32.8763,-32.2940549 z m 8.7007,32.1589769 h -5.69277 c 0,8.936109 0,19.942973 0,19.942973 h -8.43769 c 0,0 0,-10.894079 0,-19.942973 h -4.01325 v -7.041088 h 4.01325 v -4.562477 c 0,-3.265469 1.57806,-8.363013 8.51646,-8.363013 l 6.24816,0.0236 v 6.839125 c 0,0 -3.79963,0 -4.53659,0 -0.74097,0 -1.789,0.363268 -1.789,1.916005 v 4.148065 h 6.4324 z" /><path
     id="path830"
     d="m 28.325345,43.806703 v -10.0162 h -2.029426 -2.029426 v -3.469664 -3.469664 h 2.029426 2.029426 v -2.887362 c 0,-3.337139 0.13339,-4.179074 0.924814,-5.837268 0.640091,-1.341122 1.663922,-2.414254 2.937787,-3.079253 1.751837,-0.914515 1.896331,-0.936384 6.579124,-0.99574 l 4.222515,-0.05352 v 3.3497 3.3497 l -2.454951,2.09e-4 c -2.702197,2.23e-4 -3.079994,0.08647 -3.62402,0.827337 -0.247513,0.337069 -0.274914,0.585495 -0.314103,2.847744 l -0.04293,2.478454 h 3.218005 c 2.977497,0 3.217999,0.01712 3.217952,0.229128 -2.7e-5,0.126021 -0.147324,1.602451 -0.327326,3.280954 -0.180001,1.678504 -0.327276,3.136745 -0.327276,3.240535 0,0.158608 -0.459481,0.188711 -2.880476,0.188711 h -2.88048 v 10.0162 10.0162 h -4.124317 -4.124318 z"
     style="fill:#ffffff;fill-opacity:1;stroke:#262626;stroke-width:0;stroke-miterlimit:4;stroke-dasharray:none" /></svg>
