<?xml version="1.0" encoding="UTF-8" standalone="no"?>
<svg
   xmlns:dc="http://purl.org/dc/elements/1.1/"
   xmlns:cc="http://creativecommons.org/ns#"
   xmlns:rdf="http://www.w3.org/1999/02/22-rdf-syntax-ns#"
   xmlns:svg="http://www.w3.org/2000/svg"
   xmlns="http://www.w3.org/2000/svg"
   xmlns:sodipodi="http://sodipodi.sourceforge.net/DTD/sodipodi-0.dtd"
   xmlns:inkscape="http://www.inkscape.org/namespaces/inkscape"
   id="Layer_1"
   style="enable-background:new 0 0 1000 1000;"
   version="1.1"
   viewBox="0 0 1000 1000"
   xml:space="preserve"
   sodipodi:docname="insta.svg"
   inkscape:version="1.0 (4035a4fb49, 2020-05-01)"><metadata
     id="metadata50"><rdf:RDF><cc:Work
         rdf:about=""><dc:format>image/svg+xml</dc:format><dc:type
           rdf:resource="http://purl.org/dc/dcmitype/StillImage" /><dc:title></dc:title></cc:Work></rdf:RDF></metadata><defs
     id="defs48" /><sodipodi:namedview
     inkscape:document-rotation="0"
     pagecolor="#ffffff"
     bordercolor="#666666"
     borderopacity="1"
     objecttolerance="10"
     gridtolerance="10"
     guidetolerance="10"
     inkscape:pageopacity="0"
     inkscape:pageshadow="2"
     inkscape:window-width="1920"
     inkscape:window-height="1051"
     id="namedview46"
     showgrid="false"
     inkscape:zoom="0.30617724"
     inkscape:cx="277.15939"
     inkscape:cy="918.74731"
     inkscape:window-x="-9"
     inkscape:window-y="-9"
     inkscape:window-maximized="1"
     inkscape:current-layer="Layer_1" /><style
     type="text/css"
     id="style2">
	.st0{fill:url(#SVGID_1_);}
	.st1{fill:#FFFFFF;}
</style><linearGradient
     gradientUnits="userSpaceOnUse"
     id="SVGID_1_"
     x1="146.4465"
     x2="853.5535"
     y1="853.5535"
     y2="146.4465"><stop
       offset="0"
       style="stop-color:#FFD521"
       id="stop4" /><stop
       offset="5.510481e-02"
       style="stop-color:#FFD020"
       id="stop6" /><stop
       offset="0.1241"
       style="stop-color:#FEC01E"
       id="stop8" /><stop
       offset="0.2004"
       style="stop-color:#FCA71B"
       id="stop10" /><stop
       offset="0.2821"
       style="stop-color:#FA8316"
       id="stop12" /><stop
       offset="0.3681"
       style="stop-color:#F85510"
       id="stop14" /><stop
       offset="0.4563"
       style="stop-color:#F51E09"
       id="stop16" /><stop
       offset="0.5"
       style="stop-color:#F30005"
       id="stop18" /><stop
       offset="0.5035"
       style="stop-color:#F20007"
       id="stop20" /><stop
       offset="0.5966"
       style="stop-color:#E1003B"
       id="stop22" /><stop
       offset="0.6879"
       style="stop-color:#D30067"
       id="stop24" /><stop
       offset="0.7757"
       style="stop-color:#C70088"
       id="stop26" /><stop
       offset="0.8589"
       style="stop-color:#BF00A0"
       id="stop28" /><stop
       offset="0.9357"
       style="stop-color:#BB00AF"
       id="stop30" /><stop
       offset="1"
       style="stop-color:#B900B4"
       id="stop32" /></linearGradient><path
     id="path35"
     style="fill:#7d36cc;fill-opacity:1"
     d="M 500 0 C 223.9 0 0 223.9 0 500 C 0 776.1 223.9 1000 500 1000 C 776.1 1000 1000 776.1 1000 500 C 1000 223.9 776.1 0 500 0 z M 500 158.69922 C 592.7 158.69922 604.29961 159.09922 640.59961 160.69922 C 676.99961 162.39922 701.8 168.19961 723.5 176.59961 C 746 185.39961 765 197 784 216 C 803 234.9 814.70039 254.00078 823.40039 276.30078 C 831.90039 298.10078 837.60078 322.89922 839.30078 359.19922 C 841.00078 395.59922 841.40039 407.20039 841.40039 499.90039 C 841.40039 592.60039 841.00078 604.19961 839.30078 640.59961 C 837.60078 676.99961 831.80039 701.8 823.40039 723.5 C 814.60039 746 803 765 784 784 C 765.1 803 745.99922 814.70039 723.69922 823.40039 C 701.89922 831.90039 677.10078 837.60078 640.80078 839.30078 C 604.40078 841.00078 592.79961 841.40039 500.09961 841.40039 C 407.39961 841.40039 395.80039 841.00078 359.40039 839.30078 C 323.00039 837.60078 298.2 831.80039 276.5 823.40039 C 254 814.60039 235 803 216 784 C 197 765.1 185.29961 745.99922 176.59961 723.69922 C 168.09961 701.89922 162.39922 677.10078 160.69922 640.80078 C 158.99922 604.40078 158.59961 592.79961 158.59961 500.09961 C 158.59961 407.39961 158.99922 395.80039 160.69922 359.40039 C 162.39922 323.00039 168.19961 298.2 176.59961 276.5 C 185.39961 254 197 235 216 216 C 234.9 197 254.00039 185.29922 276.40039 176.69922 C 298.20039 168.19922 323.00078 162.50078 359.30078 160.80078 C 395.70078 159.10078 407.3 158.69922 500 158.69922 z M 500 220.19922 C 408.9 220.19922 398.09961 220.49922 362.09961 222.19922 C 328.79961 223.79922 310.69922 229.3 298.69922 234 C 282.79922 240.2 271.4 247.6 259.5 259.5 C 247.6 271.4 240.2 282.79922 234 298.69922 C 229.3 310.69922 223.69922 328.79961 222.19922 362.09961 C 220.49922 398.09961 220.19922 408.9 220.19922 500 C 220.19922 591.1 220.59922 601.90039 222.19922 637.90039 C 223.79922 671.20039 229.3 689.30078 234 701.30078 C 240.2 717.20078 247.6 728.6 259.5 740.5 C 271.4 752.4 282.79922 759.8 298.69922 766 C 310.69922 770.7 328.79961 776.30078 362.09961 777.80078 C 398.09961 779.50078 408.9 779.80078 500 779.80078 C 591.1 779.80078 601.90039 779.40078 637.90039 777.80078 C 671.20039 776.20078 689.30078 770.7 701.30078 766 C 717.20078 759.8 728.6 752.4 740.5 740.5 C 752.4 728.6 759.8 717.20078 766 701.30078 C 770.7 689.30078 776.30078 671.20039 777.80078 637.90039 C 779.50078 601.90039 779.80078 591.1 779.80078 500 C 779.80078 408.9 779.40078 398.09961 777.80078 362.09961 C 776.20078 328.79961 770.7 310.69922 766 298.69922 C 759.8 282.79922 752.4 271.4 740.5 259.5 C 728.6 247.6 717.20078 240.2 701.30078 234 C 689.30078 229.3 671.20039 223.69922 637.90039 222.19922 C 601.90039 220.49922 591.1 220.19922 500 220.19922 z M 681.87109 276.80078 A 41 41 0 0 1 682.19922 276.80078 A 41 41 0 0 1 723.19922 317.80078 A 41 41 0 0 1 682.19922 358.80078 A 41 41 0 0 1 641.19922 317.80078 A 41 41 0 0 1 681.87109 276.80078 z M 500 324.69922 C 596.8 324.69922 675.30078 403.2 675.30078 500 C 675.30078 596.8 596.8 675.30078 500 675.30078 C 403.2 675.30078 324.69922 596.8 324.69922 500 C 324.69922 403.2 403.2 324.69922 500 324.69922 z M 500 386.19922 C 437.2 386.19922 386.19922 437.1 386.19922 500 C 386.19922 562.9 437.2 613.80078 500 613.80078 C 562.8 613.80078 613.80078 562.9 613.80078 500 C 613.80078 437.1 562.8 386.19922 500 386.19922 z " /><path
     id="path849"
     d="M 326.15062,834.02034 C 247.3798,821.04596 197.35475,779.57955 172.96176,707.04013 c -10.1209,-30.09734 -12.30381,-75.81386 -10.96578,-229.65548 1.22718,-141.09633 1.71196,-151.28073 8.34519,-175.31921 15.04823,-54.53402 46.49388,-93.69802 93.65964,-116.64845 42.00021,-20.43692 62.55483,-23.13347 191.16005,-25.07818 141.27125,-2.13624 216.5308,1.86167 253.21043,13.45095 59.28187,18.73068 99.00256,58.33245 117.62037,117.26819 12.05851,38.17193 15.70414,105.93503 13.47452,250.45688 -2.08762,135.31855 -4.22393,151.84476 -25.19998,194.94408 -23.03215,47.32393 -61.23372,77.90086 -116.38987,93.1597 -24.33454,6.73211 -32.96124,7.0986 -185.55903,7.88288 -120.33745,0.61847 -166.51975,-0.24495 -186.16668,-3.48115 z m 339.67254,-57.50186 c 42.47873,-6.11456 80.40186,-30.64147 96.66391,-62.51777 16.3635,-32.07512 17.50392,-45.84685 17.52848,-211.67887 0.0229,-164.78082 -0.99319,-178.34223 -15.81104,-210.70865 -15.97807,-34.90069 -48.24379,-58.67954 -91.84919,-67.69003 -29.13397,-6.02016 -319.3656,-5.75573 -346.2047,0.31542 -58.86879,13.31645 -94.27968,51.19293 -102.72734,109.88004 -4.20243,29.19484 -4.31674,299.91984 -0.13884,328.8035 9.47187,65.48322 45.31116,102.8178 108.89761,113.44113 23.97633,4.00568 305.97991,4.13691 333.64111,0.15513 z"
     style="fill:#ffffff;fill-opacity:1;stroke:#262626;stroke-width:0;stroke-miterlimit:4;stroke-dasharray:none" /><path
     id="path853"
     d="m 445.69072,663.75977 c -54.40388,-18.5296 -91.35931,-55.7436 -109.74462,-110.51248 -27.15921,-80.90589 10.44721,-169.5632 88.18698,-207.90119 75.90361,-37.43247 163.07761,-16.52168 214.39409,51.4276 60.70357,80.37892 39.24345,193.78084 -47.25008,249.68431 -41.82271,27.03132 -97.56869,33.65628 -145.58637,17.30176 z M 548.7623,603.55949 c 24.21625,-11.0337 43.46963,-30.03317 55.72596,-54.99103 7.88839,-16.06332 9.07759,-22.34329 9.07759,-47.93729 0,-26.64372 -1.01527,-31.51573 -10.6464,-51.08932 -12.39007,-25.18065 -30.08713,-42.44821 -55.91632,-54.55926 -15.67775,-7.35113 -22.6435,-8.58706 -47.75016,-8.4723 -25.20183,0.11519 -32.03373,1.41136 -47.89562,9.08688 -24.45412,11.83328 -43.99934,31.81677 -55.92343,57.17741 -25.28211,53.77107 -1.28491,123.45037 51.39149,149.22253 33.76825,16.52127 67.9558,17.04526 101.93689,1.56238 z"
     style="fill:#ffffff;fill-opacity:1;stroke:#262626;stroke-width:0;stroke-miterlimit:4;stroke-dasharray:none" /><path
     id="path855"
     d="m 672.17536,354.88366 c -28.03761,-7.46998 -37.70839,-44.60451 -16.745,-64.2986 21.67394,-20.36161 55.84973,-10.88481 63.8251,17.69843 7.62103,27.31327 -19.33319,53.99271 -47.0801,46.60017 z"
     style="fill:#ffffff;fill-opacity:1;stroke:#262626;stroke-width:0;stroke-miterlimit:4;stroke-dasharray:none" /></svg>
