<?xml version="1.0" encoding="UTF-8" standalone="no"?>
<svg
   xmlns:dc="http://purl.org/dc/elements/1.1/"
   xmlns:cc="http://creativecommons.org/ns#"
   xmlns:rdf="http://www.w3.org/1999/02/22-rdf-syntax-ns#"
   xmlns:svg="http://www.w3.org/2000/svg"
   xmlns="http://www.w3.org/2000/svg"
   xmlns:sodipodi="http://sodipodi.sourceforge.net/DTD/sodipodi-0.dtd"
   xmlns:inkscape="http://www.inkscape.org/namespaces/inkscape"
   inkscape:version="1.0 (4035a4fb49, 2020-05-01)"
   sodipodi:docname="linkedin.svg"
   xml:space="preserve"
   width="67px"
   viewBox="0 0 67 67"
   version="1.1"
   style="enable-background:new 0 0 67 67;"
   id="Layer_1"
   height="67px"><metadata
     id="metadata9"><rdf:RDF><cc:Work
         rdf:about=""><dc:format>image/svg+xml</dc:format><dc:type
           rdf:resource="http://purl.org/dc/dcmitype/StillImage" /><dc:title></dc:title></cc:Work></rdf:RDF></metadata><defs
     id="defs7" /><sodipodi:namedview
     inkscape:current-layer="Layer_1"
     inkscape:window-maximized="1"
     inkscape:window-y="-9"
     inkscape:window-x="-9"
     inkscape:cy="73.024751"
     inkscape:cx="41.875508"
     inkscape:zoom="4.5698095"
     showgrid="false"
     id="namedview5"
     inkscape:window-height="1051"
     inkscape:window-width="1920"
     inkscape:pageshadow="2"
     inkscape:pageopacity="0"
     guidetolerance="10"
     gridtolerance="10"
     objecttolerance="10"
     borderopacity="1"
     bordercolor="#666666"
     pagecolor="#ffffff"
     inkscape:document-rotation="0" /><path
     id="path2"
     style="clip-rule:evenodd;fill:#7d36cc;fill-rule:evenodd;stroke-width:1.09483;fill-opacity:1"
     d="M 51.995917,49.03989 V 36.217296 c 0,-6.870028 -3.667664,-10.066918 -8.557154,-10.066918 -3.945749,0 -5.713893,2.171039 -6.699235,3.69394 v -3.168424 h -7.433864 c 0.09853,2.098781 0,22.363996 0,22.363996 h 7.433864 V 36.550123 c 0,-0.666749 0.04818,-1.334592 0.24524,-1.811936 0.536465,-1.335686 1.759385,-2.718451 3.812182,-2.718451 2.69108,0 3.766199,2.050608 3.766199,5.055903 v 11.965346 h 7.432768 z M 21.474379,23.623522 c 2.591451,0 4.206319,-1.718876 4.206319,-3.865828 -0.04817,-2.192935 -1.614868,-3.862544 -4.157051,-3.862544 -2.542184,0 -4.205224,1.668513 -4.205224,3.862544 0,2.146952 1.613772,3.865828 4.108879,3.865828 z m 12.087966,42.783581 c -18.139065,0 -32.84475754,-14.705693 -32.84475754,-32.844758 0,-18.140159 14.70569254,-32.84475754 32.84475754,-32.84475754 18.139065,0 32.844758,14.70459854 32.844758,32.84475754 0,18.139065 -14.705693,32.844758 -32.844758,32.844758 z M 25.191311,49.03989 V 26.675894 H 17.758543 V 49.03989 Z" /><path
     id="path830"
     d="M 17.913896,37.793523 V 26.742734 h 3.610654 3.610654 V 37.793523 48.844312 H 21.52455 17.913896 Z"
     style="fill:#ffffff;fill-opacity:1;stroke:#262626;stroke-width:0;stroke-miterlimit:4;stroke-dasharray:none" /><path
     id="path832"
     d="M 29.511754,37.793523 V 26.742734 h 3.610654 3.610654 v 1.582741 1.582741 l 0.989777,-1.131464 c 0.607446,-0.694402 1.473864,-1.369179 2.242982,-1.746861 1.132254,-0.556004 1.474961,-0.615398 3.550893,-0.615398 2.028055,0 2.442725,0.068 3.533618,0.579447 2.2983,1.077523 4.020697,3.454069 4.558468,6.289728 0.123504,0.651229 0.223359,4.392792 0.223359,8.369204 v 7.19144 h -3.599426 -3.599426 l -0.06593,-7.057187 c -0.06222,-6.659433 -0.09168,-7.106521 -0.522625,-7.932497 -0.670627,-1.28535 -1.638487,-1.860108 -3.131618,-1.859694 -1.495809,4.15e-4 -2.490765,0.470616 -3.398613,1.606131 l -0.672042,0.840575 -0.0632,7.201336 -0.0632,7.201336 H 33.11392 29.511761 Z"
     style="fill:#ffffff;fill-opacity:1;stroke:#262626;stroke-width:0;stroke-miterlimit:4;stroke-dasharray:none" /><path
     id="path834"
     d="m 19.408594,23.016803 c -1.187606,-0.627347 -1.786998,-1.59991 -1.875656,-3.043411 -0.05926,-0.9648 0.02939,-1.396333 0.426614,-2.076755 1.232406,-2.111042 4.54726,-2.538565 6.382,-0.823098 2.604123,2.434833 0.794253,6.406353 -2.906127,6.377111 -0.772643,-0.0061 -1.519881,-0.166053 -2.026831,-0.433847 z"
     style="fill:#ffffff;fill-opacity:1;stroke:#262626;stroke-width:0;stroke-miterlimit:4;stroke-dasharray:none" /></svg>
