<?xml version="1.0" encoding="UTF-8" standalone="no"?>
<svg
   xmlns:dc="http://purl.org/dc/elements/1.1/"
   xmlns:cc="http://creativecommons.org/ns#"
   xmlns:rdf="http://www.w3.org/1999/02/22-rdf-syntax-ns#"
   xmlns:svg="http://www.w3.org/2000/svg"
   xmlns="http://www.w3.org/2000/svg"
   xmlns:sodipodi="http://sodipodi.sourceforge.net/DTD/sodipodi-0.dtd"
   xmlns:inkscape="http://www.inkscape.org/namespaces/inkscape"
   enable-background="new 0 0 512 512"
   height="512px"
   id="Layer_1"
   version="1.1"
   viewBox="0 0 512 512"
   width="512px"
   xml:space="preserve"
   sodipodi:docname="twtr.svg"
   inkscape:version="1.0 (4035a4fb49, 2020-05-01)"><metadata
     id="metadata16"><rdf:RDF><cc:Work
         rdf:about=""><dc:format>image/svg+xml</dc:format><dc:type
           rdf:resource="http://purl.org/dc/dcmitype/StillImage" /><dc:title></dc:title></cc:Work></rdf:RDF></metadata><defs
     id="defs14" /><sodipodi:namedview
     inkscape:document-rotation="0"
     pagecolor="#ffffff"
     bordercolor="#666666"
     borderopacity="1"
     objecttolerance="10"
     gridtolerance="10"
     guidetolerance="10"
     inkscape:pageopacity="0"
     inkscape:pageshadow="2"
     inkscape:window-width="1920"
     inkscape:window-height="1051"
     id="namedview12"
     showgrid="false"
     inkscape:zoom="1.1960048"
     inkscape:cx="170.28745"
     inkscape:cy="322.89781"
     inkscape:window-x="-9"
     inkscape:window-y="-9"
     inkscape:window-maximized="1"
     inkscape:current-layer="Layer_1" /><linearGradient
     gradientUnits="userSpaceOnUse"
     id="SVGID_1_"
     x1="18.9215"
     x2="401.4024"
     y1="-8.0404"
     y2="417.9384"><stop
       offset="0"
       style="stop-color:#11A4DC"
       id="stop2" /><stop
       offset="0.5051"
       style="stop-color:#0F94C9"
       id="stop4" /><stop
       offset="1"
       style="stop-color:#0C82B4"
       id="stop6" /></linearGradient><path
     d="M256,7.098C118.535,7.098,7.098,118.535,7.098,256S118.535,504.902,256,504.902  c137.465,0,248.902-111.437,248.902-248.902S393.465,7.098,256,7.098z M377.17,193.848c0.118,2.685,0.173,5.387,0.173,8.097  c0,82.613-62.875,177.87-177.87,177.87c-35.3,0-68.158-10.342-95.832-28.088c4.893,0.581,9.872,0.878,14.913,0.878  c29.294,0,56.244-9.996,77.64-26.765c-27.352-0.501-50.437-18.581-58.397-43.416c3.816,0.736,7.732,1.126,11.765,1.126  c5.703,0,11.227-0.767,16.472-2.19c-28.602-5.752-50.152-31.014-50.152-61.298c0-0.266,0-0.532,0.006-0.792  c8.431,4.682,18.074,7.497,28.317,7.825c-16.775-11.208-27.81-30.346-27.81-52.032c0-11.468,3.08-22.206,8.462-31.435  c30.835,37.824,76.904,62.709,128.862,65.319c-1.07-4.584-1.621-9.353-1.621-14.245c0-34.527,27.989-62.517,62.511-62.517  c17.981,0,34.23,7.596,45.63,19.744c14.245-2.808,27.618-8.01,39.698-15.179c-4.67,14.61-14.573,26.857-27.488,34.589  c12.649-1.503,24.705-4.862,35.907-9.841C399.982,174.036,389.381,185.052,377.17,193.848z"
     fill="url(#SVGID_1_)"
     id="path9"
     style="fill:#7d36cc;fill-opacity:1;stroke-width:0;stroke-miterlimit:4;stroke-dasharray:none" /><path
     id="path836"
     d="m 180.32085,378.36193 c -22.92558,-2.58787 -46.9433,-10.29235 -67.09323,-21.52239 l -6.8928,-3.84152 15.25397,-0.50318 c 19.34766,-0.6382 29.88787,-2.81345 46.23803,-9.54247 11.29849,-4.64996 29.65503,-15.99274 28.21395,-17.43382 -0.29175,-0.29175 -2.1007,-0.53045 -4.01988,-0.53045 -13.19032,0 -32.63369,-10.14279 -42.28086,-22.05614 -3.90749,-4.82539 -10.80697,-16.84162 -10.80697,-18.82157 0,-0.61668 1.9696,-0.74033 6.15603,-0.38644 5.46752,0.46217 18.9878,-0.79966 20.84113,-1.94508 0.37094,-0.22925 -2.82384,-1.62018 -7.09951,-3.09095 -22.51241,-7.74391 -38.38521,-26.79011 -41.75608,-50.10425 -0.57454,-3.9737 -0.84086,-7.42866 -0.59183,-7.6777 0.24904,-0.24902 2.19221,0.31664 4.31817,1.25706 5.43501,2.40416 16.04101,4.99937 20.43121,4.99937 h 3.70386 l -4.04663,-3.20245 c -9.74475,-7.71186 -17.1168,-18.22745 -20.90853,-29.82417 -3.12877,-9.56913 -3.67768,-24.12177 -1.2691,-33.64641 0.9405,-3.71916 2.69864,-8.85194 3.90699,-11.40618 l 2.197,-4.64407 5.71066,6.45375 c 13.75224,15.54175 32.55197,29.79298 52.42884,39.74394 20.42655,10.22616 41.12667,15.97692 66.65088,18.5165 4.46336,0.44408 4.85002,0.35472 4.30062,-0.99391 -0.33201,-0.81502 -0.79429,-5.62064 -1.02728,-10.67915 -0.8795,-19.09557 6.09444,-35.75664 20.48727,-48.94506 6.98904,-6.40419 19.50457,-12.74353 28.7829,-14.57906 19.48888,-3.85549 39.62012,1.59546 53.53985,14.49701 3.73793,3.46451 4.16827,3.64387 7.52505,3.13633 6.18644,-0.93538 19.45099,-5.52384 27.74817,-9.59861 4.40151,-2.16159 8.00273,-3.8344 8.00273,-3.71735 0,1.20916 -4.75069,10.38496 -7.35334,14.20272 -3.67033,5.38393 -12.46398,14.13375 -16.68502,16.60186 -5.55924,3.25058 -2.69773,3.30253 11.07855,0.20111 4.13878,-0.93175 10.09798,-2.61629 13.24265,-3.74343 3.14469,-1.12713 5.91835,-1.8486 6.1637,-1.60325 1.22041,1.22041 -16.58559,20.39926 -24.69671,26.60082 l -3.61812,2.76632 -0.33108,11.86584 c -2.09995,75.26223 -50.18022,142.06161 -118.68635,164.89458 -23.65157,7.88302 -53.36551,11.0554 -77.75889,8.30185 z"
     style="fill:#ffffff;fill-opacity:1;stroke:#262626;stroke-width:0;stroke-miterlimit:4;stroke-dasharray:none" /></svg>
